<?xml version="1.0" encoding="UTF-8"?>
<svg id="Artwork" xmlns="http://www.w3.org/2000/svg" version="1.1" viewBox="0 0 100 100">
  <!-- Generator: Adobe Illustrator 29.5.1, SVG Export Plug-In . SVG Version: 2.1.0 Build 141)  -->
  <defs>
    <style>
      .st0 {
        fill-rule: evenodd;
      }
    </style>
  </defs>
  <path class="st0" d="M99.99,27.7c0-1.01-.02-2.01-.04-3.02-.06-2.19-.19-4.4-.58-6.57-.39-2.2-1.04-4.25-2.06-6.25-1-1.96-2.31-3.76-3.86-5.32-1.56-1.56-3.36-2.86-5.32-3.86-2-1.02-4.04-1.66-6.24-2.06-2.17-.39-4.38-.52-6.57-.58-1.01-.03-2.01-.04-3.02-.04-1.19,0-2.39,0-3.58,0H31.28c-1.19,0-2.39,0-3.58,0-1.01,0-2.01.02-3.02.04-2.19.06-4.4.19-6.57.58-2.2.39-4.24,1.04-6.24,2.06-1.96,1-3.76,2.31-5.32,3.86s-2.86,3.35-3.86,5.32c-1.02,2-1.66,4.05-2.06,6.25C.24,20.28.11,22.49.05,24.68c-.03,1.01-.04,2.01-.04,3.02,0,1.19,0,2.39,0,3.58v37.44c0,1.19,0,2.39,0,3.58,0,1.01.02,2.01.04,3.02.06,2.19.19,4.4.58,6.57.39,2.2,1.04,4.25,2.06,6.25,1,1.96,2.31,3.76,3.86,5.32,1.56,1.56,3.36,2.86,5.32,3.86,2,1.02,4.04,1.66,6.24,2.06,2.17.39,4.38.52,6.57.58,1.01.03,2.01.04,3.02.04,1.19,0,2.39,0,3.58,0h37.44c1.19,0,2.39,0,3.58,0,1.01,0,2.01-.02,3.02-.04,2.19-.06,4.4-.19,6.57-.58,2.2-.39,4.24-1.04,6.24-2.06,1.96-1,3.76-2.31,5.32-3.86,1.56-1.56,2.86-3.35,3.86-5.32,1.02-2,1.66-4.05,2.06-6.25.39-2.17.52-4.38.58-6.57.03-1.01.04-2.01.04-3.02,0-1.19,0-2.39,0-3.58V31.28h0c0-1.19,0-2.39,0-3.58ZM73.2,65.08c0,1.27-.01,2.41-.28,3.68-.26,1.23-.73,2.39-1.46,3.43-.72,1.04-1.65,1.89-2.74,2.53-1.09.65-2.24,1.02-3.47,1.26-2.31.46-3.88.57-5.36.27-1.43-.29-2.64-.94-3.61-1.83-1.44-1.31-2.33-3.09-2.53-4.95-.23-2.18.49-4.5,2.13-6.22.83-.87,1.86-1.55,3.24-2.09,1.45-.56,3.04-.9,5.5-1.39l1.94-.39c.85-.17,1.58-.39,2.17-1.11.59-.72.6-1.61.6-2.48v-22.03c0-1.69-.76-2.14-2.37-1.84-1.15.22-25.86,5.21-25.86,5.21-1.39.34-1.88.79-1.88,2.52v32.26c0,1.27-.06,2.41-.33,3.68-.26,1.23-.73,2.39-1.46,3.43-.73,1.04-1.65,1.89-2.74,2.53-1.09.65-2.24,1.03-3.47,1.28-2.31.47-3.88.57-5.36.27-1.43-.29-2.64-.96-3.61-1.85-1.44-1.31-2.27-3.09-2.47-4.95-.23-2.18.44-4.5,2.07-6.22.83-.87,1.86-1.55,3.24-2.09,1.45-.56,3.04-.9,5.5-1.39l1.94-.39c.85-.17,1.58-.39,2.17-1.11.59-.72.66-1.56.66-2.43V25.5c0-.5.04-.84.07-1.01.12-.78.43-1.46,1-1.93.47-.39,1.08-.67,1.85-.83h.01s29.72-6,29.72-6c.26-.05,2.41-.43,2.65-.46,1.61-.14,2.51.92,2.51,2.63v47.17Z"/>
</svg>