<?xml version="1.0" encoding="UTF-8"?>
<svg id="Artwork" xmlns="http://www.w3.org/2000/svg" version="1.1" xmlns:xlink="http://www.w3.org/1999/xlink" viewBox="0 0 100 100">
  <!-- Generator: Adobe Illustrator 29.5.1, SVG Export Plug-In . SVG Version: 2.1.0 Build 141)  -->
  <defs>
    <style>
      .st0 {
        fill: #fff;
      }

      .st0, .st1 {
        fill-rule: evenodd;
      }

      .st1 {
        fill: url(#linear-gradient);
      }
    </style>
    <linearGradient id="linear-gradient" x1="50" y1="-459.61" x2="50" y2="-362.16" gradientTransform="translate(0 -360) scale(1 -1)" gradientUnits="userSpaceOnUse">
      <stop offset="0" stop-color="#fa233b"/>
      <stop offset="1" stop-color="#fb5c74"/>
    </linearGradient>
  </defs>
  <path class="st1" d="M100,31.28c0-1.19,0-2.39,0-3.58,0-1.01-.02-2.01-.04-3.02-.06-2.19-.19-4.4-.58-6.57-.39-2.2-1.04-4.25-2.06-6.25-1-1.96-2.31-3.76-3.86-5.32-1.56-1.56-3.36-2.86-5.32-3.86-2-1.02-4.04-1.66-6.24-2.06-2.17-.39-4.38-.52-6.57-.58-1.01-.03-2.01-.04-3.02-.04-1.19,0-2.39,0-3.58,0H31.28c-1.19,0-2.39,0-3.58,0-1.01,0-2.01.02-3.02.04-2.19.06-4.4.19-6.57.58-2.2.39-4.24,1.04-6.24,2.06-1.96,1-3.76,2.31-5.32,3.86-1.56,1.56-2.86,3.35-3.86,5.32-1.02,2-1.66,4.05-2.06,6.25C.24,20.28.11,22.49.05,24.68c-.03,1.01-.04,2.01-.04,3.02,0,1.19,0,2.39,0,3.58v37.44c0,1.19,0,2.39,0,3.58,0,1.01.02,2.01.04,3.02.06,2.19.19,4.4.58,6.57.39,2.2,1.04,4.25,2.06,6.25,1,1.96,2.31,3.76,3.86,5.32,1.56,1.56,3.36,2.86,5.32,3.86,2,1.02,4.04,1.66,6.24,2.06,2.17.39,4.38.52,6.57.58,1.01.03,2.01.04,3.02.04,1.19,0,2.39,0,3.58,0h37.44c1.19,0,2.39,0,3.58,0,1.01,0,2.01-.02,3.02-.04,2.19-.06,4.4-.19,6.57-.58,2.2-.39,4.24-1.04,6.24-2.06,1.96-1,3.76-2.31,5.32-3.86,1.56-1.56,2.86-3.35,3.86-5.32,1.02-2,1.66-4.05,2.06-6.25.39-2.17.52-4.38.58-6.57.03-1.01.04-2.01.04-3.02,0-1.19,0-2.39,0-3.58V31.28h0Z"/>
  <g id="Glyph">
    <path class="st0" d="M70.69,15.28c-.24.02-2.39.4-2.65.46l-29.72,6h-.01c-.77.17-1.38.44-1.85.84-.57.48-.88,1.15-1,1.93-.02.17-.07.51-.07,1.01v37.2c0,.87-.07,1.71-.66,2.43s-1.32.94-2.17,1.11c-.65.13-1.29.26-1.94.39-2.46.49-4.05.83-5.5,1.39-1.38.54-2.42,1.22-3.24,2.09-1.64,1.71-2.3,4.04-2.07,6.22.19,1.86,1.03,3.64,2.47,4.95.97.89,2.18,1.56,3.61,1.85,1.48.3,3.06.19,5.36-.27,1.23-.25,2.38-.63,3.47-1.28,1.08-.64,2.01-1.49,2.74-2.53.73-1.04,1.2-2.2,1.46-3.43.27-1.27.33-2.42.33-3.68v-32.26c0-1.73.49-2.18,1.88-2.52,0,0,24.71-4.98,25.86-5.21,1.61-.31,2.37.15,2.37,1.84v22.03c0,.87,0,1.76-.6,2.48-.59.72-1.32.94-2.17,1.11l-1.94.39c-2.46.49-4.05.83-5.5,1.39-1.38.54-2.42,1.22-3.24,2.09-1.64,1.71-2.36,4.04-2.13,6.22.19,1.86,1.09,3.64,2.52,4.95.97.89,2.18,1.54,3.61,1.83,1.48.3,3.06.19,5.36-.27,1.23-.25,2.38-.62,3.47-1.26,1.08-.64,2.01-1.49,2.74-2.53.73-1.04,1.2-2.2,1.46-3.43.27-1.27.28-2.42.28-3.68V17.91c0-1.71-.9-2.77-2.51-2.63Z"/>
  </g>
</svg>