<?xml version="1.0" encoding="UTF-8"?>
<svg id="Layer_2" xmlns="http://www.w3.org/2000/svg" version="1.1" viewBox="0 0 100 100">
  <!-- Generator: Adobe Illustrator 29.5.1, SVG Export Plug-In . SVG Version: 2.1.0 Build 141)  -->
  <g id="Layer_1-2">
    <path d="M49.99,9c13.35,0,14.93.05,20.2.29,4.88.22,7.52,1.04,9.28,1.72,2.33.91,4,1.99,5.75,3.74,1.75,1.75,2.83,3.42,3.74,5.75.69,1.76,1.5,4.41,1.72,9.28.24,5.27.29,6.85.29,20.2s-.05,14.93-.29,20.2c-.22,4.88-1.04,7.52-1.72,9.28-.91,2.33-1.99,4-3.74,5.75-1.75,1.75-3.42,2.83-5.75,3.74-1.76.69-4.41,1.5-9.28,1.72-5.27.24-6.85.29-20.2.29s-14.93-.05-20.2-.29c-4.88-.22-7.52-1.04-9.28-1.72-2.33-.91-4-1.99-5.75-3.74-1.75-1.75-2.83-3.42-3.74-5.75-.69-1.76-1.5-4.41-1.72-9.28-.24-5.27-.29-6.85-.29-20.2s.05-14.93.29-20.2c.22-4.88,1.04-7.52,1.72-9.28.91-2.33,1.99-4,3.74-5.75,1.75-1.75,3.42-2.83,5.75-3.74,1.76-.69,4.41-1.5,9.28-1.72,5.27-.24,6.85-.29,20.2-.29h0ZM49.99,0C36.42,0,34.71.05,29.38.3c-5.32.24-8.96,1.09-12.14,2.32-3.29,1.28-6.08,2.99-8.86,5.77-2.78,2.78-4.49,5.57-5.77,8.86-1.24,3.18-2.08,6.82-2.32,12.14C.05,34.71,0,36.42,0,49.99s.06,15.28.3,20.62c.24,5.32,1.09,8.96,2.32,12.14,1.28,3.29,2.99,6.08,5.77,8.86,2.78,2.78,5.57,4.49,8.86,5.77,3.18,1.24,6.82,2.08,12.14,2.32,5.33.24,7.04.3,20.62.3s15.28-.06,20.62-.3c5.32-.24,8.96-1.09,12.14-2.32,3.29-1.28,6.08-2.99,8.86-5.77,2.78-2.78,4.49-5.57,5.77-8.86,1.24-3.18,2.08-6.82,2.32-12.14.24-5.33.3-7.04.3-20.62s-.06-15.28-.3-20.62c-.24-5.32-1.09-8.96-2.32-12.14-1.28-3.29-2.99-6.08-5.77-8.86-2.78-2.78-5.57-4.49-8.86-5.77-3.18-1.24-6.82-2.08-12.14-2.32C65.28.05,63.57,0,49.99,0ZM49.99,24.32c-14.18,0-25.68,11.49-25.68,25.68s11.49,25.68,25.68,25.68,25.68-11.5,25.68-25.68-11.5-25.68-25.68-25.68ZM49.99,66.66c-9.2,0-16.67-7.46-16.67-16.67s7.46-16.67,16.67-16.67,16.67,7.46,16.67,16.67-7.46,16.67-16.67,16.67ZM76.68,17.31c-3.31,0-6,2.69-6,6s2.69,6,6,6,6-2.69,6-6-2.69-6-6-6h0Z"/>
  </g>
</svg>