<?xml version="1.0" encoding="UTF-8"?>
<svg id="Layer_1" xmlns="http://www.w3.org/2000/svg" version="1.1" xmlns:xlink="http://www.w3.org/1999/xlink" viewBox="0 0 100 100">
  <!-- Generator: Adobe Illustrator 29.5.1, SVG Export Plug-In . SVG Version: 2.1.0 Build 141)  -->
  <defs>
    <style>
      .Graphic_x0020_Style_x0020_2 {
        fill: url(#radial-gradient);
      }

      .st0 {
        fill: url(#New_Gradient_Swatch);
      }
    </style>
    <radialGradient id="radial-gradient" cx="12.85" cy="11.49" fx="12.85" fy="11.49" r="41.43" gradientTransform="translate(-17.72 -17.7) scale(1.35)" gradientUnits="userSpaceOnUse">
      <stop offset="0" stop-color="#3771c8"/>
      <stop offset=".13" stop-color="#3771c8"/>
      <stop offset="1" stop-color="#60f" stop-opacity="0"/>
    </radialGradient>
    <radialGradient id="New_Gradient_Swatch" data-name="New Gradient Swatch" cx="39.88" cy="67.11" fx="1.63" fy="74.95" r="72.85" gradientTransform="translate(-63.43 76.7) rotate(-59.25) scale(1.35 1.25) skewX(.01)" gradientUnits="userSpaceOnUse">
      <stop offset="0" stop-color="#fd5"/>
      <stop offset=".1" stop-color="#fd5"/>
      <stop offset=".5" stop-color="#ff543e"/>
      <stop offset="1" stop-color="#c837ab"/>
    </radialGradient>
  </defs>
  <path class="st0" d="M50,0C36.43,0,34.72.06,29.39.3c-5.32.24-8.96,1.09-12.14,2.32-3.29,1.28-6.08,2.99-8.86,5.77-2.78,2.78-4.49,5.57-5.77,8.86-1.24,3.18-2.08,6.81-2.32,12.14-.24,5.33-.3,7.04-.3,20.62s.06,15.28.3,20.61c.24,5.32,1.09,8.96,2.32,12.14,1.28,3.29,2.99,6.08,5.77,8.86,2.78,2.78,5.57,4.49,8.85,5.77,3.18,1.24,6.82,2.08,12.14,2.32,5.33.24,7.04.3,20.61.3s15.28-.06,20.61-.3c5.32-.24,8.96-1.09,12.14-2.32,3.29-1.28,6.07-2.99,8.85-5.77,2.78-2.78,4.49-5.57,5.77-8.86,1.23-3.18,2.07-6.81,2.32-12.14.24-5.33.3-7.03.3-20.61s-.06-15.28-.3-20.62c-.25-5.32-1.09-8.96-2.32-12.14-1.28-3.29-2.99-6.08-5.77-8.86-2.78-2.78-5.56-4.49-8.85-5.77-3.19-1.24-6.82-2.08-12.15-2.32-5.33-.24-7.03-.3-20.61-.3h.02ZM45.52,9.01c1.33,0,2.82,0,4.49,0,13.35,0,14.93.05,20.2.29,4.88.22,7.52,1.04,9.28,1.72,2.33.91,4,1.99,5.75,3.74,1.75,1.75,2.83,3.42,3.74,5.75.68,1.76,1.5,4.41,1.72,9.28.24,5.27.29,6.85.29,20.2s-.05,14.93-.29,20.2c-.22,4.87-1.04,7.52-1.72,9.28-.91,2.33-1.99,3.99-3.74,5.74-1.75,1.75-3.41,2.83-5.75,3.74-1.76.69-4.41,1.5-9.28,1.72-5.27.24-6.85.29-20.2.29s-14.93-.05-20.2-.29c-4.88-.23-7.52-1.04-9.28-1.72-2.33-.91-4-1.99-5.75-3.74-1.75-1.75-2.83-3.41-3.74-5.75-.68-1.76-1.5-4.41-1.72-9.28-.24-5.27-.29-6.85-.29-20.21s.05-14.93.29-20.2c.22-4.87,1.04-7.52,1.72-9.28.91-2.33,1.99-4,3.74-5.75,1.75-1.75,3.42-2.83,5.75-3.74,1.76-.69,4.41-1.5,9.28-1.72,4.61-.21,6.4-.27,15.72-.28h0ZM76.69,17.31c-3.31,0-6,2.68-6,6s2.69,6,6,6,6-2.69,6-6-2.69-6-6-6h0ZM50,24.32c-14.18,0-25.68,11.5-25.68,25.68s11.5,25.67,25.68,25.67c14.18,0,25.67-11.49,25.67-25.67s-11.49-25.68-25.67-25.68h0ZM50,33.33c9.2,0,16.67,7.46,16.67,16.67s-7.46,16.67-16.67,16.67-16.67-7.46-16.67-16.67,7.46-16.67,16.67-16.67Z"/>
  <path class="Graphic_x0020_Style_x0020_2" d="M50,0C36.43,0,34.72.06,29.39.3c-5.32.24-8.96,1.09-12.14,2.32-3.29,1.28-6.08,2.99-8.86,5.77-2.78,2.78-4.49,5.57-5.77,8.86-1.24,3.18-2.08,6.81-2.32,12.14-.24,5.33-.3,7.04-.3,20.62s.06,15.28.3,20.61c.24,5.32,1.09,8.96,2.32,12.14,1.28,3.29,2.99,6.08,5.77,8.86,2.78,2.78,5.57,4.49,8.85,5.77,3.18,1.24,6.82,2.08,12.14,2.32,5.33.24,7.04.3,20.61.3s15.28-.06,20.61-.3c5.32-.24,8.96-1.09,12.14-2.32,3.29-1.28,6.07-2.99,8.85-5.77,2.78-2.78,4.49-5.57,5.77-8.86,1.23-3.18,2.07-6.81,2.32-12.14.24-5.33.3-7.03.3-20.61s-.06-15.28-.3-20.62c-.25-5.32-1.09-8.96-2.32-12.14-1.28-3.29-2.99-6.08-5.77-8.86-2.78-2.78-5.56-4.49-8.85-5.77-3.19-1.24-6.82-2.08-12.15-2.32-5.33-.24-7.03-.3-20.61-.3h.02ZM45.52,9.01c1.33,0,2.82,0,4.49,0,13.35,0,14.93.05,20.2.29,4.88.22,7.52,1.04,9.28,1.72,2.33.91,4,1.99,5.75,3.74,1.75,1.75,2.83,3.42,3.74,5.75.68,1.76,1.5,4.41,1.72,9.28.24,5.27.29,6.85.29,20.2s-.05,14.93-.29,20.2c-.22,4.87-1.04,7.52-1.72,9.28-.91,2.33-1.99,3.99-3.74,5.74-1.75,1.75-3.41,2.83-5.75,3.74-1.76.69-4.41,1.5-9.28,1.72-5.27.24-6.85.29-20.2.29s-14.93-.05-20.2-.29c-4.88-.23-7.52-1.04-9.28-1.72-2.33-.91-4-1.99-5.75-3.74-1.75-1.75-2.83-3.41-3.74-5.75-.68-1.76-1.5-4.41-1.72-9.28-.24-5.27-.29-6.85-.29-20.21s.05-14.93.29-20.2c.22-4.87,1.04-7.52,1.72-9.28.91-2.33,1.99-4,3.74-5.75,1.75-1.75,3.42-2.83,5.75-3.74,1.76-.69,4.41-1.5,9.28-1.72,4.61-.21,6.4-.27,15.72-.28h0ZM76.69,17.31c-3.31,0-6,2.68-6,6s2.69,6,6,6,6-2.69,6-6-2.69-6-6-6h0ZM50,24.32c-14.18,0-25.68,11.5-25.68,25.68s11.5,25.67,25.68,25.67c14.18,0,25.67-11.49,25.67-25.67s-11.49-25.68-25.67-25.68h0ZM50,33.33c9.2,0,16.67,7.46,16.67,16.67s-7.46,16.67-16.67,16.67-16.67-7.46-16.67-16.67,7.46-16.67,16.67-16.67Z"/>
</svg>