<?xml version="1.0" encoding="UTF-8"?>
<svg id="Layer_1" xmlns="http://www.w3.org/2000/svg" version="1.1" viewBox="0 0 100 100">
  <!-- Generator: Adobe Illustrator 29.5.1, SVG Export Plug-In . SVG Version: 2.1.0 Build 141)  -->
  <defs>
    <style>
      .st0 {
        fill: #1ed760;
      }
    </style>
  </defs>
  <path class="st0" d="M51.98.04C24.39-1.06,1.13,20.42.04,48.02c-1.1,27.59,20.39,50.85,47.98,51.94,27.59,1.1,50.85-20.38,51.94-47.98C101.05,24.39,79.57,1.13,51.98.04ZM73.09,73.29c-.62,1.1-1.83,1.65-3.01,1.48-.36-.05-.72-.17-1.06-.36-6.61-3.76-13.81-6.21-21.41-7.28s-15.2-.7-22.59,1.1c-1.6.39-3.22-.59-3.61-2.2-.39-1.6.59-3.22,2.2-3.61,8.12-1.97,16.48-2.38,24.82-1.21,8.34,1.17,16.26,3.87,23.53,8,1.43.82,1.93,2.64,1.12,4.07h0ZM79.66,60.16c-1.02,1.88-3.38,2.59-5.26,1.57-7.73-4.18-16.1-6.93-24.88-8.16-8.78-1.23-17.58-.9-26.17.99-.47.1-.93.12-1.38.05-1.56-.22-2.89-1.38-3.25-3.01-.46-2.09.86-4.16,2.96-4.62,9.49-2.09,19.22-2.46,28.92-1.1,9.69,1.36,18.95,4.4,27.49,9.02,1.89,1.02,2.59,3.37,1.57,5.26h0ZM86.94,45.37c-.96,1.85-2.96,2.8-4.9,2.53-.53-.07-1.04-.24-1.54-.49-9-4.68-18.7-7.78-28.82-9.2-10.12-1.42-20.3-1.12-30.24.9-2.59.53-5.11-1.15-5.63-3.73-.53-2.59,1.15-5.1,3.73-5.63,11.01-2.24,22.27-2.57,33.48-1,11.2,1.57,21.93,5,31.9,10.19,2.34,1.22,3.25,4.1,2.03,6.44h0Z"/>
</svg>