<?xml version="1.0" encoding="UTF-8"?>
<svg id="Layer_1" xmlns="http://www.w3.org/2000/svg" version="1.1" viewBox="0 0 100 100">
  <!-- Generator: Adobe Illustrator 29.5.1, SVG Export Plug-In . SVG Version: 2.1.0 Build 141)  -->
  <defs>
    <style>
      .st0 {
        fill-rule: evenodd;
      }
    </style>
  </defs>
  <g id="Artboard">
    <path class="st0" d="M50,0C22.39,0,0,22.39,0,50s22.39,50,50,50,50-22.39,50-50S77.61,0,50,0ZM73.18,34c-.75,7.91-4.01,27.09-5.66,35.95-.7,3.75-2.08,5-3.42,5.13-2.9.27-5.11-1.92-7.92-3.76-4.4-2.88-6.89-4.68-11.16-7.5-4.94-3.25-1.74-5.04,1.08-7.96.74-.76,13.53-12.4,13.78-13.46.03-.13.06-.62-.23-.88-.29-.26-.72-.17-1.04-.1-.44.1-7.47,4.75-21.09,13.94-2,1.37-3.8,2.04-5.42,2-1.79-.04-5.22-1.01-7.77-1.84-3.13-1.02-5.62-1.56-5.4-3.28.11-.9,1.35-1.82,3.72-2.76,14.58-6.35,24.3-10.54,29.16-12.56,13.89-5.78,16.77-6.78,18.65-6.81.41,0,1.34.1,1.94.58.51.41.64.96.71,1.35.07.39.15,1.28.08,1.97Z"/>
  </g>
</svg>