<?xml version="1.0" encoding="UTF-8"?>
<svg id="Layer_1" xmlns="http://www.w3.org/2000/svg" version="1.1" viewBox="0 0 100 100">
  <!-- Generator: Adobe Illustrator 29.5.1, SVG Export Plug-In . SVG Version: 2.1.0 Build 141)  -->
  <path d="M80.58,20.04c-5.39-3.51-9.27-9.13-10.49-15.68-.26-1.42-.41-2.87-.41-4.36h-17.19l-.03,68.9c-.29,7.72-6.64,13.91-14.42,13.91-2.42,0-4.7-.6-6.7-1.66-4.6-2.42-7.75-7.24-7.75-12.79,0-7.97,6.48-14.45,14.45-14.45,1.49,0,2.91.25,4.26.67v-17.55c-1.4-.19-2.82-.31-4.26-.31-17.45,0-31.64,14.2-31.64,31.64,0,10.71,5.35,20.18,13.51,25.91,5.14,3.61,11.39,5.74,18.13,5.74,17.45,0,31.64-14.2,31.64-31.64v-34.94c6.74,4.84,15,7.69,23.92,7.69v-17.19c-4.8,0-9.27-1.43-13.03-3.87v-.02Z"/>
</svg>