<?xml version="1.0" encoding="UTF-8"?>
<svg id="Layer_1" xmlns="http://www.w3.org/2000/svg" version="1.1" viewBox="0 0 100 100">
  <!-- Generator: Adobe Illustrator 29.5.1, SVG Export Plug-In . SVG Version: 2.1.0 Build 141)  -->
  <defs>
    <style>
      .st0 {
        fill: #010101;
      }

      .st1 {
        fill: #6ccad4;
      }

      .st2 {
        fill: #ee3658;
      }
    </style>
  </defs>
  <path class="st1" d="M40.23,39.47v-4c-1.34-.18-2.7-.3-4.09-.3-16.72,0-30.32,13.6-30.32,30.32,0,10.26,5.13,19.34,12.94,24.83-5.05-5.42-8.04-12.68-8.04-20.65,0-16.48,13.12-29.82,29.51-30.21Z"/>
  <path class="st1" d="M40.94,83.63c7.46,0,13.65-6.03,13.93-13.43l.02-65.92,11.96-.1c-.25-1.36-.39-2.75-.39-4.18h-16.47l-.03,66.02c-.28,7.39-6.36,13.33-13.82,13.33-2.32,0-4.5-.58-6.42-1.59,2.52,3.49,6.61,5.87,11.23,5.87Z"/>
  <path class="st1" d="M89.38,26.7v-3.78c-4.6,0-8.89-1.37-12.48-3.71,3.2,3.68,7.55,6.44,12.48,7.49Z"/>
  <path class="st2" d="M76.9,19.21c-3.51-4.03-5.64-9.28-5.64-15.03h-4.41c1.16,6.28,4.89,11.66,10.05,15.03Z"/>
  <path class="st2" d="M36.14,51.65c-7.64,0-13.85,6.21-13.85,13.85,0,5.32,3.02,9.94,7.42,12.26-1.64-2.28-2.62-5.06-2.62-8.08,0-7.64,6.21-13.85,13.85-13.85,1.43,0,2.79.24,4.09.64v-16.82c-1.34-.18-2.7-.3-4.09-.3-.24,0-.48.01-.72.02v12.92c-1.29-.41-2.66-.64-4.09-.64Z"/>
  <path class="st2" d="M89.38,26.59v12.8c-8.54,0-16.46-2.73-22.92-7.37v33.48c0,16.72-13.6,30.32-30.32,30.32-6.46,0-12.45-2.04-17.38-5.5,5.54,5.95,13.43,9.68,22.18,9.68,16.72,0,30.32-13.6,30.32-30.32v-33.48c6.46,4.64,14.38,7.37,22.92,7.37v-16.47c-1.65,0-3.25-.18-4.8-.51Z"/>
  <path class="st0" d="M66.46,65.5v-33.48c6.46,4.64,14.38,7.37,22.92,7.37v-12.8c-4.93-1.06-9.28-3.71-12.48-7.38-5.16-3.37-8.89-8.75-10.05-15.03h-12.06l-.03,66.02c-.28,7.39-6.36,13.33-13.82,13.33-4.62,0-8.71-2.28-11.23-5.77-4.41-2.32-7.42-6.94-7.42-12.26,0-7.64,6.21-13.85,13.85-13.85,1.43,0,2.79.24,4.09.64v-12.92c-16.39.38-29.61,13.82-29.61,30.3,0,7.97,3.1,15.23,8.14,20.65,4.92,3.46,10.92,5.5,17.38,5.5,16.72,0,30.32-13.6,30.32-30.32Z"/>
</svg>