<svg width="100" height="100" viewBox="0 0 100 100" fill="none" xmlns="http://www.w3.org/2000/svg">
<path fill-rule="evenodd" clip-rule="evenodd" d="M92.97 7.03085C85.94 0.000854492 74.63 0.000854492 52 0.000854492H48C25.37 0.000854492 14.06 0.000854492 7.03 7.03085C0 14.0609 0 25.3709 0 48.0009V52.0009C0 74.6309 0 85.9409 7.03 92.9709C14.06 100.001 25.37 100.001 48 100.001H52C74.63 100.001 85.94 100.001 92.97 92.9709C100 85.9409 100 74.6309 100 52.0009V48.0009C100 25.3709 100 14.0609 92.97 7.03085ZM50 73.5009C47.53 73.5009 45.5 71.5009 45.5 69.0209V50.9709C45.5 48.5009 47.53 46.5009 50 46.5009C52.47 46.5009 54.5 48.5009 54.5 50.9709V69.0209C54.5 71.4909 52.47 73.5009 50 73.5009ZM61.5 80.5209V39.4709C61.5 37.0009 63.53 34.9909 66 34.9909C68.47 34.9909 70.5 36.9909 70.5 39.4709V80.5209C70.5 82.9909 68.47 84.9909 66 84.9909C63.53 84.9909 61.5 82.9909 61.5 80.5209ZM86.5 69.0209C86.5 71.4909 84.47 73.4909 82 73.4909C79.53 73.4909 77.5 71.4909 77.5 69.0209V50.9709C77.5 48.5009 79.53 46.4909 82 46.4909C84.47 46.4909 86.5 48.4909 86.5 50.9709V69.0209ZM66 19.9909C56.9 19.9909 49.63 24.9909 41.46 30.6109C31.76 37.2809 20.78 44.7909 4 45.8409C4 35.5309 4.06 28.0109 4.84 22.2009C5.66 16.1109 7.21 12.5109 9.85 9.86085C12.5 7.21085 16.1 5.66085 22.19 4.85085C28.4 4.02085 36.56 4.01085 47.99 4.01085H51.99C63.42 4.01085 71.58 4.01085 77.79 4.85085C83.88 5.67085 87.48 7.22085 90.13 9.86085C92.78 12.5109 94.33 16.1109 95.14 22.2009C95.56 25.3309 95.77 28.9609 95.88 33.2509C89.3 28.0009 78.37 20.0009 65.99 20.0009L66 19.9909ZM38.5 57.4709V62.5209C38.5 64.9909 36.47 66.9909 34 66.9909C31.53 66.9909 29.5 64.9909 29.5 62.5209V57.4709C29.5 55.0009 31.53 52.9909 34 52.9909C36.47 52.9909 38.5 54.9909 38.5 57.4709ZM18 66.9909C15.53 66.9909 13.5 64.9909 13.5 62.5209V57.4709C13.5 55.0009 15.53 52.9909 18 52.9909C20.47 52.9909 22.5 54.9909 22.5 57.4709V62.5209C22.5 64.9909 20.47 66.9909 18 66.9909Z" fill="black"/>
</svg>
