<?xml version="1.0" encoding="UTF-8"?>
<svg id="Layer_1" xmlns="http://www.w3.org/2000/svg" version="1.1" viewBox="0 0 100 100">
  <!-- Generator: Adobe Illustrator 29.5.1, SVG Export Plug-In . SVG Version: 2.1.0 Build 141)  -->
  <path d="M92.97,7.03C85.94,0,74.63,0,52,0h-4C25.37,0,14.06,0,7.03,7.03,0,14.06,0,25.37,0,48v4c0,22.63,0,33.94,7.03,40.97,7.03,7.03,18.34,7.03,40.97,7.03h4c22.63,0,33.94,0,40.97-7.03,7.03-7.03,7.03-18.34,7.03-40.97v-4c0-22.63,0-33.94-7.03-40.97ZM71.75,72.04c-2.54-7.92-8.87-14.04-17.25-14.88v14.88h-1.29c-22.79,0-35.79-15.62-36.33-41.62h11.42c.38,19.08,8.79,27.17,15.46,28.83v-28.83h10.75v16.46c6.58-.71,13.5-8.21,15.83-16.46h10.75c-1.79,10.17-9.29,17.67-14.63,20.75,5.33,2.5,13.88,9.04,17.13,20.88h-11.83Z"/>
</svg>