<?xml version="1.0" encoding="UTF-8"?>
<svg id="Layer_1" xmlns="http://www.w3.org/2000/svg" version="1.1" viewBox="0 0 100 100">
  <!-- Generator: Adobe Illustrator 29.5.1, SVG Export Plug-In . SVG Version: 2.1.0 Build 141)  -->
  <defs>
    <style>
      .st0 {
        fill-rule: evenodd;
      }
    </style>
  </defs>
  <path d="M68.68,65.8c-.18-12.38-7.31-24.21-19.44-29.95-17.08-8.09-37.6-1.04-45.83,15.75-8.23,16.79-1.06,36.96,16.03,45.05,17.08,8.09,37.61,1.04,45.83-15.75,2.24-4.57,3.34-9.39,3.41-14.15v-.95Z"/>
  <path class="st0" d="M100,2.08c0-1.15-.95-2.08-2.11-2.08h-63.91c-1.13,0-2.06.88-2.11,1.99v62.89c0,1.15.95,2.08,2.11,2.08h34.7v-30.78h29.2c1.17,0,2.11-.93,2.11-2.08V2.08Z"/>
</svg>