<?xml version="1.0" encoding="UTF-8"?>
<svg id="Layer_1" xmlns="http://www.w3.org/2000/svg" version="1.1" viewBox="0 0 100 100">
  <!-- Generator: Adobe Illustrator 29.5.1, SVG Export Plug-In . SVG Version: 2.1.0 Build 141)  -->
  <path d="M99.05,38.12l-.39-1.94-16.49-2.88,9.58-12.96-1.11-1.22-14.09,6.76,1.78-17.95-1.45-.83-8.58,14.51L58.66,0h-1.67l2.28,20.89L35.04,1.5l-2.06.61,18.66,23.44L14.71,13.24l-1.67,1.88,32.98,18.78L.5,37.67,0,40.5l47.3,5.15L7.86,78.28l1.67,2.27,46.96-25.54-9.3,44.99h2.84l17.99-42.33,10.97,33.13,1.95-1.5-4.51-33.68,17.1,19.39,1.11-1.77-13.09-24.04,18.27,6.76.17-2.05-16.38-12.08,15.43-3.71h0Z"/>
</svg>