<?xml version="1.0" encoding="UTF-8"?>
<svg id="Layer_1" xmlns="http://www.w3.org/2000/svg" version="1.1" viewBox="0 0 100 100">
  <!-- Generator: Adobe Illustrator 29.5.1, SVG Export Plug-In . SVG Version: 2.1.0 Build 141)  -->
  <path d="M50,23.08c-14.85,0-26.92,12.08-26.92,26.92s12.08,26.92,26.92,26.92,26.92-12.08,26.92-26.92-12.08-26.92-26.92-26.92ZM39.42,66.35v-32.69l28.85,16.35-28.85,16.35Z"/>
  <path d="M50,0C22.4,0,0,22.4,0,50s22.4,50,50,50,50-22.4,50-50S77.6,0,50,0ZM50,80.77c-16.97,0-30.77-13.8-30.77-30.77s13.8-30.77,30.77-30.77,30.77,13.8,30.77,30.77-13.8,30.77-30.77,30.77Z"/>
</svg>