<?xml version="1.0" encoding="UTF-8"?>
<svg id="Layer_1" xmlns="http://www.w3.org/2000/svg" version="1.1" viewBox="0 0 100 100">
  <!-- Generator: Adobe Illustrator 29.5.1, SVG Export Plug-In . SVG Version: 2.1.0 Build 141)  -->
  <defs>
    <style>
      .st0 {
        fill: #fff;
      }

      .st1 {
        fill: #ed3024;
      }
    </style>
  </defs>
  <path class="st1" d="M97.91,25.93c-1.15-4.3-4.54-7.69-8.84-8.84-7.8-2.09-39.07-2.09-39.07-2.09,0,0-31.27,0-39.07,2.09-4.3,1.15-7.69,4.54-8.84,8.84C0,33.73,0,50,0,50,0,50,0,66.27,2.09,74.07c1.15,4.3,4.54,7.69,8.84,8.84,7.8,2.09,39.07,2.09,39.07,2.09,0,0,31.27,0,39.07-2.09,4.3-1.15,7.69-4.54,8.84-8.84,2.09-7.8,2.09-24.07,2.09-24.07,0,0,0-16.27-2.09-24.07Z"/>
  <polygon class="st0" points="40 65 65.98 50 40 35 40 65"/>
</svg>