<?xml version="1.0" encoding="UTF-8"?>
<svg id="Layer_1" xmlns="http://www.w3.org/2000/svg" version="1.1" viewBox="0 0 100 100">
  <!-- Generator: Adobe Illustrator 29.5.1, SVG Export Plug-In . SVG Version: 2.1.0 Build 141)  -->
  <defs>
    <style>
      .st0 {
        fill: #fff;
        fill-rule: evenodd;
      }
    </style>
  </defs>
  <path class="st0" d="M42.36,86.1c.25,1.21.38,1.81,0,2.24-.38.43-1.01.37-2.27.26-7.07-.63-11.02-1.93-14.12-3.2-5.14-2.13-9.23-6.22-11.36-11.36-1.28-3.09-2.58-7.05-3.2-14.12-.11-1.26-.17-1.89.26-2.27.42-.38,1.03-.25,2.24,0,14.27,2.95,25.5,14.19,28.45,28.46ZM56.02,88.86c-.98.05-1.47.07-1.81-.21-.34-.28-.41-.79-.55-1.81-2.96-20.95-19.53-37.53-40.49-40.49-1.02-.14-1.53-.22-1.81-.55-.28-.34-.26-.83-.21-1.81.19-4.11.58-7.34,1.08-9.98.16-.86.24-1.3.59-1.56.34-.26.78-.23,1.67-.16,28.41,2.14,51.1,24.82,53.24,53.23.07.89.1,1.33-.16,1.67-.26.34-.7.42-1.56.59-2.64.5-5.87.89-9.97,1.08h0ZM81.49,80.16c-1.11,1.22-1.67,1.83-2.35,1.63s-.82-1.11-1.11-2.91c-4.7-29.16-27.73-52.19-56.89-56.89-1.81-.29-2.71-.44-2.91-1.12-.2-.68.41-1.24,1.63-2.36,1.79-1.63,3.85-2.95,6.12-3.9,4.31-1.79,10.28-3.6,24.03-3.6s19.73,1.81,24.03,3.6c5.14,2.13,9.23,6.22,11.36,11.36,1.79,4.31,3.6,10.29,3.6,24.03s-1.81,19.73-3.6,24.03c-.94,2.27-2.27,4.34-3.9,6.13h0ZM0,50C0,35.09,2,27.63,4.44,21.75,7.69,13.91,13.92,7.68,21.76,4.43,27.64,2,35.09,0,50,0s22.36,2,28.24,4.44c7.84,3.25,14.07,9.47,17.32,17.32,2.43,5.88,4.44,13.34,4.44,28.25s-2,22.36-4.44,28.25c-3.25,7.84-9.47,14.07-17.32,17.31-5.88,2.44-13.34,4.44-28.24,4.44s-22.36-2-28.24-4.44c-7.84-3.24-14.07-9.47-17.32-17.31-2.43-5.88-4.44-13.34-4.44-28.25h0Z"/>
</svg>